# xmcd CD database file
#
# Track frame offsets:
#	150
#	17820
#	38992
#
# Disc length: 746 seconds
#
# Revision: 0
# Processed by: cddbd v1.5.1PL2 Copyright (c) Steve Scherf et al.
# Submitted via: CDex 1.51
#
DISCID=1d02e803
DTITLE=七転ふみつき（島涼香） - ハッピー☆レッスンTHE TV第2巻 プチ☆キャラクターCD　七転ふみつき
DYEAR=1900
DGENRE=アニメ
TTITLE0=七転ふみつきのラブラブレッスンAパート
TTITLE1=Masquerade
TTITLE2=七転ふみつきのラブラブレッスンBパート
EXTD=
EXTT0=
EXTT1=
EXTT2=
PLAYORDER=
